<?xml version="1.0" encoding="UTF-8"?>
<svg id="Layer_2" data-name="Layer 2" xmlns="http://www.w3.org/2000/svg" xmlns:xlink="http://www.w3.org/1999/xlink" viewBox="0 0 113.39 113.39">
  <defs>
    <style>
      .cls-1 {
        fill: url(#linear-gradient);
      }

      .cls-2 {
        fill: #fff;
      }

      .cls-3 {
        fill: #7d43ea;
      }
    </style>
    <linearGradient id="linear-gradient" x1="56.69" y1="111.97" x2="56.69" y2="1.42" gradientUnits="userSpaceOnUse">
      <stop offset="0" stop-color="#37007b"/>
      <stop offset="1" stop-color="#7d43ea"/>
    </linearGradient>
  </defs>
  <g id="Layer_3" data-name="Layer 3">
    <g id="logo--dark">
      <g>
        <g>
          <rect class="cls-1" x="1.42" y="1.42" width="110.55" height="110.55" rx="22.45" ry="22.45"/>
          <path class="cls-3" d="M89.52,2.83c11.6,0,21.04,9.44,21.04,21.04v65.64c0,11.6-9.44,21.04-21.04,21.04H23.87c-11.6,0-21.04-9.44-21.04-21.04V23.87C2.83,12.27,12.27,2.83,23.87,2.83h65.64M89.52,0H23.87C10.69,0,0,10.69,0,23.87v65.64c0,13.18,10.69,23.87,23.87,23.87h65.64c13.18,0,23.87-10.69,23.87-23.87V23.87c0-13.18-10.69-23.87-23.87-23.87h0Z"/>
        </g>
        <path class="cls-2" d="M25.79,90.71c-.82,0-1.62-.33-2.2-.91-.67-.67-1-1.61-.89-2.55.07-.62,1.78-15.21,10.24-23.68l19.61-19.61-2.47-2.47c-1.22-1.22-1.22-3.19,0-4.41,1.22-1.22,3.19-1.22,4.41,0l2.47,2.47,13.38-13.38c2.25-2.25,5.25-3.49,8.44-3.49s6.18,1.24,8.44,3.49c2.25,2.25,3.49,5.25,3.49,8.44s-1.24,6.18-3.49,8.44l-13.38,13.38,2.47,2.47c1.22,1.22,1.22,3.19,0,4.41-1.22,1.22-3.19,1.22-4.41,0l-2.47-2.47-19.61,19.61c-8.47,8.47-23.06,10.17-23.68,10.24-.11.01-.23.02-.34.02ZM56.96,48.37l-19.61,19.61c-4.42,4.42-6.64,11.31-7.67,15.73,4.42-1.03,11.31-3.25,15.73-7.67l19.61-19.61-8.06-8.06ZM61.37,43.96l8.06,8.06,13.38-13.38c1.08-1.08,1.67-2.51,1.67-4.03s-.59-2.95-1.67-4.03c-2.22-2.22-5.84-2.22-8.06,0l-13.38,13.38Z"/>
      </g>
    </g>
  </g>
</svg>