<?xml version="1.0" encoding="UTF-8"?>
<svg id="Layer_2" data-name="Layer 2" xmlns="http://www.w3.org/2000/svg" xmlns:xlink="http://www.w3.org/1999/xlink" viewBox="0 0 405.17 113.39">
  <defs>
    <style>
      .cls-1 {
        fill: url(#linear-gradient);
      }

      .cls-2 {
        fill: #fff;
      }

      .cls-3 {
        fill: #020817;
      }

      .cls-4 {
        fill: #7d43ea;
      }
    </style>
    <linearGradient id="linear-gradient" x1="56.69" y1="111.97" x2="56.69" y2="1.42" gradientUnits="userSpaceOnUse">
      <stop offset="0" stop-color="#37007b"/>
      <stop offset="1" stop-color="#7d43ea"/>
    </linearGradient>
  </defs>
  <g id="Layer_3" data-name="Layer 3">
    <g id="logo--light">
      <g>
        <g>
          <path class="cls-1" d="M23.87,1.42h65.64c12.39,0,22.45,10.06,22.45,22.45v65.65c0,12.39-10.06,22.45-22.45,22.45H23.87c-12.39,0-22.45-10.06-22.45-22.45V23.87C1.42,11.48,11.48,1.42,23.87,1.42Z"/>
          <path class="cls-4" d="M89.52,2.83c11.6,0,21.04,9.44,21.04,21.04v65.64c0,11.6-9.44,21.04-21.04,21.04H23.87c-11.6,0-21.04-9.44-21.04-21.04V23.87C2.83,12.27,12.27,2.83,23.87,2.83h65.64M89.52,0H23.87C10.69,0,0,10.69,0,23.87v65.64c0,13.18,10.69,23.87,23.87,23.87h65.64c13.18,0,23.87-10.69,23.87-23.87V23.87c0-13.18-10.69-23.87-23.87-23.87h0Z"/>
        </g>
        <path class="cls-2" d="M25.79,90.71c-.82,0-1.62-.33-2.2-.91-.67-.67-1-1.61-.89-2.55.07-.62,1.78-15.21,10.24-23.68l19.61-19.61-2.47-2.47c-1.22-1.22-1.22-3.19,0-4.41,1.22-1.22,3.19-1.22,4.41,0l2.47,2.47,13.38-13.38c2.25-2.25,5.25-3.49,8.44-3.49s6.18,1.24,8.44,3.49c2.25,2.25,3.49,5.25,3.49,8.44s-1.24,6.18-3.49,8.44l-13.38,13.38,2.47,2.47c1.22,1.22,1.22,3.19,0,4.41-1.22,1.22-3.19,1.22-4.41,0l-2.47-2.47-19.61,19.61c-8.47,8.47-23.06,10.17-23.68,10.24-.11.01-.23.02-.34.02ZM56.96,48.37l-19.61,19.61c-4.42,4.42-6.64,11.31-7.67,15.73,4.42-1.03,11.31-3.25,15.73-7.67l19.61-19.61-8.06-8.06ZM61.37,43.96l8.06,8.06,13.38-13.38c1.08-1.08,1.67-2.51,1.67-4.03s-.59-2.95-1.67-4.03c-2.22-2.22-5.84-2.22-8.06,0l-13.38,13.38Z"/>
      </g>
      <g>
        <path class="cls-3" d="M167.67,90.56v-55.65h-20.27v-12.24h55.26v12.24h-20.37v55.65h-14.63Z"/>
        <path class="cls-3" d="M211.08,104.9v-10.71h6.79c1.66,0,2.88-.24,3.68-.72.8-.48,1.42-1.32,1.86-2.53l1.05-2.96h-3.92l-17.98-48.67h14.63l11.76,35.28,11-35.28h14.63l-19.7,56.12c-1.15,3.38-2.81,5.8-4.97,7.27-2.17,1.47-5.2,2.2-9.08,2.2h-9.75Z"/>
        <path class="cls-3" d="M260.8,90.56v-51.25h12.91l.57,15.01-1.82-.48c.51-3.82,1.54-6.88,3.11-9.18,1.56-2.29,3.52-3.95,5.88-4.97,2.36-1.02,4.94-1.53,7.75-1.53,3.7,0,6.84.8,9.42,2.39,2.58,1.59,4.56,3.84,5.93,6.74,1.37,2.9,2.06,6.33,2.06,10.28v32.99h-14.34v-28.21c0-2.74-.22-5.07-.67-6.98-.45-1.91-1.24-3.36-2.39-4.35-1.15-.99-2.74-1.48-4.78-1.48-3,0-5.29,1.1-6.88,3.3-1.59,2.2-2.39,5.37-2.39,9.51v28.21h-14.34Z"/>
        <path class="cls-3" d="M313.48,50.02v-10.71h36.05v10.71h-36.05ZM337.1,90.56c-5.29,0-9.18-1.23-11.66-3.68-2.49-2.45-3.73-6.36-3.73-11.71V27.27h14.34v46.18c0,2.49.53,4.18,1.58,5.07,1.05.89,2.63,1.34,4.73,1.34h7.17v10.71h-12.43Z"/>
        <path class="cls-3" d="M380.12,91.71c-5.23,0-9.77-1.1-13.62-3.3-3.86-2.2-6.85-5.31-8.99-9.32-2.14-4.02-3.2-8.73-3.2-14.15s1.07-10.12,3.2-14.1c2.14-3.98,5.12-7.09,8.94-9.32,3.83-2.23,8.35-3.35,13.58-3.35s9.53,1.12,13.29,3.35c3.76,2.23,6.68,5.42,8.75,9.56,2.07,4.14,3.11,9.08,3.11,14.82v2.87h-36.05c.19,4.08,1.29,7.11,3.3,9.08,2.01,1.98,4.67,2.96,7.98,2.96,2.42,0,4.45-.51,6.07-1.53,1.62-1.02,2.79-2.58,3.49-4.68l14.44.86c-1.34,5.1-4.18,9.08-8.51,11.95-4.34,2.87-9.59,4.3-15.78,4.3ZM369.13,59.97h21.32c-.19-3.76-1.23-6.56-3.11-8.41-1.88-1.85-4.32-2.77-7.31-2.77s-5.47.97-7.41,2.92c-1.95,1.95-3.11,4.7-3.49,8.27Z"/>
      </g>
    </g>
  </g>
</svg>